HIERARCHY
ROOT joint_Root
{
	OFFSET 0.0 0.0 0.0
	CHANNELS 6 Xposition Yposition Zposition Zrotation Xrotation Yrotation 
	JOINT Hips
	{
		OFFSET -17.1583 93.1646 452.98
		CHANNELS 6 Xposition Yposition Zposition Zrotation Xrotation Yrotation 
		JOINT Spine
		{
			OFFSET 15.7357 0.0 0.0
			CHANNELS 6 Xposition Yposition Zposition Zrotation Xrotation Yrotation 
			JOINT Chest
			{
				OFFSET 8.98455 -0.406207 0.0
				CHANNELS 6 Xposition Yposition Zposition Zrotation Xrotation Yrotation 
				JOINT Neck
				{
					OFFSET 16.3773 0.0 0.0
					CHANNELS 6 Xposition Yposition Zposition Zrotation Xrotation Yrotation 
					JOINT Head
					{
						OFFSET 6.45672 0.0 0.0
						CHANNELS 6 Xposition Yposition Zposition Zrotation Xrotation Yrotation 
						End Site
						{
							OFFSET 0.0 0.0 0.0
						}
					}
				}
				JOINT Shoulder_L
				{
					OFFSET 12.9942 -0.242716 4.98039
					CHANNELS 6 Xposition Yposition Zposition Zrotation Xrotation Yrotation 
					JOINT UpperArm_L
					{
						OFFSET 5.34809 0.0 0.0
						CHANNELS 6 Xposition Yposition Zposition Zrotation Xrotation Yrotation 
						JOINT LowerArm_L
						{
							OFFSET 24.3286 1.87007e-05 0.0
							CHANNELS 6 Xposition Yposition Zposition Zrotation Xrotation Yrotation 
							JOINT Hand_L
							{
								OFFSET 22.2916 0.0 0.0
								CHANNELS 6 Xposition Yposition Zposition Zrotation Xrotation Yrotation 
								End Site
								{
									OFFSET 0.0 0.0 0.0
								}
							}
						}
					}
				}
				JOINT Shoulder_R
				{
					OFFSET 12.9945 -0.242716 -4.98039
					CHANNELS 6 Xposition Yposition Zposition Zrotation Xrotation Yrotation 
					JOINT UpperArm_R
					{
						OFFSET -5.34813 0.0 0.0
						CHANNELS 6 Xposition Yposition Zposition Zrotation Xrotation Yrotation 
						JOINT LowerArm_R
						{
							OFFSET -24.3289 0.000322201 0.0
							CHANNELS 6 Xposition Yposition Zposition Zrotation Xrotation Yrotation 
							JOINT Hand_R
							{
								OFFSET -22.2915 -0.000108084 0.0
								CHANNELS 6 Xposition Yposition Zposition Zrotation Xrotation Yrotation 
								End Site
								{
									OFFSET 0.0 0.0 0.0
								}
							}
						}
					}
				}
			}
		}
		JOINT UpperLeg_L
		{
			OFFSET -2.19248 -6.46944 0.0
			CHANNELS 6 Xposition Yposition Zposition Zrotation Xrotation Yrotation 
			JOINT LowerLeg_L
			{
				OFFSET 39.0811 0.0 -1.23785e-05
				CHANNELS 6 Xposition Yposition Zposition Zrotation Xrotation Yrotation 
				JOINT Foot_L
				{
					OFFSET 40.9854 0.0 -1.26872e-05
					CHANNELS 6 Xposition Yposition Zposition Zrotation Xrotation Yrotation 
					JOINT Toes_L
					{
						OFFSET 11.7543 0.0 0.0
						CHANNELS 6 Xposition Yposition Zposition Zrotation Xrotation Yrotation 
						End Site
						{
							OFFSET 0.0 0.0 0.0
						}
					}
				}
			}
		}
		JOINT UpperLeg_R
		{
			OFFSET -2.19251 6.46944 0.0
			CHANNELS 6 Xposition Yposition Zposition Zrotation Xrotation Yrotation 
			JOINT LowerLeg_R
			{
				OFFSET -39.0811 -0.00228153 -0.0401928
				CHANNELS 6 Xposition Yposition Zposition Zrotation Xrotation Yrotation 
				JOINT Foot_R
				{
					OFFSET -40.9854 0.0 0.0
					CHANNELS 6 Xposition Yposition Zposition Zrotation Xrotation Yrotation 
					JOINT Toes_R
					{
						OFFSET -11.7543 0.0 0.0
						CHANNELS 6 Xposition Yposition Zposition Zrotation Xrotation Yrotation 
						End Site
						{
							OFFSET 0.0 0.0 0.0
						}
					}
				}
			}
		}
	}
}
MOTION
Frames:	6
Frame Time:	0.0333333
0.000000 0.000000 0.000000 0.000000 0.000000 -0.000000 -2.791130 85.465600 -450.438000 86.417000 -0.796690 -25.860500 15.735700 0.000005 -0.000001 100.653000 83.177800 -97.744400 8.984550 -0.406207 -0.000000 5.591330 2.461290 5.691620 16.377300 -0.000001 -0.000001 -13.280300 3.217560 -1.866210 6.456720 -0.000001 -0.000000 -9.167770 2.667340 -5.741890 12.994200 -0.242716 4.980390 -91.795900 5.040130 -70.358800 5.348090 -0.000007 -0.000001 -47.419300 -22.883700 8.877300 24.328600 0.000019 0.000005 3.324620 30.977200 -6.447630 22.291600 -0.000001 0.000005 -7.423010 4.973940 7.791920 12.994500 -0.242716 -4.980390 89.791100 0.807195 -75.487400 -5.348130 -0.000001 -0.000004 -59.217500 5.432260 -14.265400 -24.328900 0.000322 -0.000009 6.801710 2.153970 -72.620600 -22.291500 -0.000108 -0.000004 19.910800 5.444660 -4.431270 -2.192480 -6.469440 -0.000000 -177.454000 -2.624290 -53.815400 39.081100 -0.000007 -0.000012 0.207572 0.004043 91.113200 40.985400 -0.000006 -0.000013 -4.927560 3.368410 -51.519900 11.754300 -0.000000 0.000003 0.002046 0.048500 -14.609500 -2.192510 6.469440 -0.000001 -174.151000 14.171400 151.586000 -39.081100 -0.002282 -0.040193 0.093782 -0.084037 47.128200 -40.985400 0.000008 0.000006 -9.159130 11.884300 -81.559600 -11.754300 -0.000006 -0.000006 -0.011262 -0.112841 -21.172200
0.000000 0.000000 0.000000 0.000000 0.000000 -0.000000 -2.287450 88.107000 -442.790000 89.290500 -1.097770 -26.544800 15.735700 0.000005 -0.000001 105.640000 83.643600 -104.334000 8.984550 -0.406207 -0.000000 4.445220 3.383570 2.478020 16.377300 -0.000001 -0.000001 -12.608300 1.891550 -1.379640 6.456720 -0.000001 -0.000000 -8.506250 0.248555 -3.746450 12.994200 -0.242716 4.980390 -91.427900 4.002890 -70.349900 5.348090 -0.000007 -0.000001 -42.509300 -20.875800 12.965100 24.328600 0.000019 0.000005 3.436580 21.466200 -9.325780 22.291600 -0.000001 0.000005 5.470710 4.845400 10.313300 12.994500 -0.242716 -4.980390 89.848800 0.595030 -75.753100 -5.348130 -0.000001 -0.000004 -59.895000 2.312900 -11.929200 -24.328900 0.000322 -0.000009 0.358444 0.055467 -81.879200 -22.291500 -0.000108 -0.000004 21.030600 5.508780 -6.876220 -2.192480 -6.469440 -0.000000 179.477000 -0.970240 -58.584500 39.081100 -0.000007 -0.000012 0.127196 -0.010252 85.388400 40.985400 -0.000006 -0.000013 -4.128710 0.375924 -59.165000 11.754300 -0.000000 0.000003 0.001595 0.033599 -15.213800 -2.192510 6.469440 -0.000001 -178.347000 16.687000 160.360000 -39.081100 -0.002282 -0.040193 0.088226 -0.119620 35.376800 -40.985400 0.000008 0.000006 -9.878190 12.032400 -70.450900 -11.754300 -0.000006 -0.000006 -0.042781 -0.271011 -27.714000
0.000000 0.000000 0.000000 0.000000 0.000000 -0.000000 -1.642530 90.729300 -434.924000 92.220300 -1.659590 -27.902500 15.735700 0.000005 -0.000001 112.001000 84.473400 -112.358000 8.984550 -0.406207 -0.000000 2.501240 4.153850 -0.804053 16.377300 -0.000001 -0.000001 -11.738700 0.864484 -1.525690 6.456720 -0.000001 -0.000000 -7.276980 -2.049440 -1.084020 12.994200 -0.242716 4.980390 -90.849700 2.359570 -70.187100 5.348090 -0.000007 -0.000001 -40.515500 -20.572300 14.905000 24.328600 0.000019 0.000005 2.508940 14.413000 -9.982120 22.291600 -0.000001 0.000005 27.372100 4.674010 13.415700 12.994500 -0.242716 -4.980390 90.013300 -0.056085 -76.447800 -5.348130 -0.000001 -0.000004 -61.454100 0.506838 -8.771170 -24.328900 0.000322 -0.000009 -1.181780 -0.047261 -87.702100 -22.291500 -0.000108 -0.000004 23.443000 5.567170 -9.476950 -2.192480 -6.469440 -0.000000 176.646000 0.633352 -61.107000 39.081100 -0.000007 -0.000012 0.089520 -0.024738 74.548400 40.985400 -0.000006 -0.000013 -4.373240 -0.172082 -64.228300 11.754300 -0.000000 0.000003 0.002057 0.048940 -14.591600 -2.192510 6.469440 -0.000001 177.950000 17.286400 167.187000 -39.081100 -0.002282 -0.040193 0.076108 -0.163851 23.954000 -40.985400 0.000008 0.000006 -7.377340 9.356410 -54.876200 -11.754300 -0.000006 -0.000006 -0.109348 -0.467179 -36.119700
0.000000 0.000000 0.000000 0.000000 0.000000 -0.000000 -1.140960 92.742300 -427.059000 93.796000 -1.930680 -29.212100 15.735700 0.000005 -0.000001 120.894000 85.157600 -122.386000 8.984550 -0.406207 -0.000000 0.616547 5.064100 -3.010100 16.377300 -0.000001 -0.000001 -10.761300 0.169568 -1.597650 6.456720 -0.000001 -0.000000 -6.437600 -3.954230 0.750864 12.994200 -0.242716 4.980390 -90.419600 1.143300 -69.843800 5.348090 -0.000007 -0.000001 -40.830300 -20.992900 13.752100 24.328600 0.000019 0.000005 2.004190 13.584200 -8.478150 22.291600 -0.000001 0.000005 51.066600 4.284070 19.705500 12.994500 -0.242716 -4.980390 90.099100 -0.427654 -76.949000 -5.348130 -0.000001 -0.000004 -63.246700 0.557396 -6.382070 -24.328900 0.000322 -0.000009 -3.041940 -0.010471 -89.796900 -22.291500 -0.000108 -0.000004 28.829700 5.617690 -12.325100 -2.192480 -6.469440 -0.000000 175.659000 1.595560 -60.938100 39.081100 -0.000007 -0.000012 0.071428 -0.041557 59.806200 40.985400 -0.000006 -0.000013 -4.518370 3.648550 -67.176400 11.754300 -0.000000 0.000003 0.001975 0.045768 -14.720300 -2.192510 6.469440 -0.000001 176.196000 15.388200 172.647000 -39.081100 -0.002282 -0.040193 0.041412 -0.153060 13.970900 -40.985400 0.000008 0.000006 -0.775514 7.357690 -37.814400 -11.754300 -0.000006 -0.000006 -0.099342 -0.442922 -35.055800
0.000000 0.000000 0.000000 0.000000 0.000000 -0.000000 -1.163460 93.700500 -418.829000 92.573300 -0.800891 -28.348300 15.735700 0.000005 -0.000001 125.650000 85.171500 -126.965000 8.984550 -0.406207 -0.000000 0.151929 5.714310 -2.638370 16.377300 -0.000001 -0.000001 -10.194100 -0.098814 -2.032710 6.456720 -0.000001 -0.000000 -5.995060 -5.165440 1.884470 12.994200 -0.242716 4.980390 -90.591000 1.563650 -69.294300 5.348090 -0.000007 -0.000001 -41.625500 -20.970100 10.191800 24.328600 0.000019 0.000005 1.192040 14.908100 -4.623040 22.291600 -0.000001 0.000005 61.310000 3.862650 26.154300 12.994500 -0.242716 -4.980390 89.996400 0.015512 -77.012400 -5.348130 -0.000001 -0.000004 -64.830100 2.243450 -5.586820 -24.328900 0.000322 -0.000009 -8.269600 -0.307335 -87.898600 -22.291500 -0.000108 -0.000004 33.199500 5.655060 -15.456300 -2.192480 -6.469440 -0.000000 178.024000 1.521180 -56.630900 39.081100 -0.000007 -0.000012 0.052437 -0.054927 43.669900 40.985400 -0.000006 -0.000013 -6.294460 9.025120 -69.982400 11.754300 -0.000000 0.000003 0.002175 0.054121 -14.381500 -2.192510 6.469440 -0.000001 177.674000 8.857660 177.824000 -39.081100 -0.002282 -0.040193 0.020045 -0.099738 9.508560 -40.985400 0.000008 0.000006 2.122750 3.427070 -23.822200 -11.754300 -0.000006 -0.000006 0.000137 0.002332 -16.479100
0.000000 0.000000 0.000000 0.000000 0.000000 -0.000000 -1.170030 93.158800 -410.430000 90.508500 -0.271506 -25.928900 15.735700 0.000005 -0.000001 126.310000 84.817600 -127.029000 8.984550 -0.406207 -0.000000 0.631448 6.180270 -1.471950 16.377300 -0.000001 -0.000001 -10.136500 -0.017770 -2.182720 6.456720 -0.000001 -0.000000 -5.219670 -5.320260 2.065540 12.994200 -0.242716 4.980390 -90.956900 2.531070 -69.282300 5.348090 -0.000007 -0.000001 -43.471500 -20.976200 7.290990 24.328600 0.000019 0.000005 0.396101 11.955100 -1.910190 22.291600 -0.000001 0.000005 51.540200 3.790340 27.128000 12.994500 -0.242716 -4.980390 89.899900 0.444233 -77.297000 -5.348130 -0.000001 -0.000004 -67.298000 4.069630 -5.054600 -24.328900 0.000322 -0.000009 -9.012220 -1.339330 -81.589300 -22.291500 -0.000108 -0.000004 33.251000 5.668140 -17.101900 -2.192480 -6.469440 -0.000000 179.907000 -0.147933 -50.532900 39.081100 -0.000007 -0.000012 0.024838 -0.041888 30.665900 40.985400 -0.000006 -0.000013 -7.655170 12.328200 -73.557400 11.754300 -0.000000 0.000003 0.002138 0.052378 -14.452200 -2.192510 6.469440 -0.000001 -179.660000 2.825260 179.645000 -39.081100 -0.002282 -0.040193 0.017457 -0.050414 15.655300 -40.985400 0.000008 0.000006 -0.406165 5.637350 -13.148000 -11.754300 -0.000006 -0.000006 0.001041 0.147794 -10.579600
